<?xml version="1.0" encoding="iso-8859-1"?>
<!-- Generator: Adobe Illustrator 19.0.0, SVG Export Plug-In . SVG Version: 6.00 Build 0)  -->
<svg version="1.1" id="Capa_1" xmlns="http://www.w3.org/2000/svg" xmlns:xlink="http://www.w3.org/1999/xlink" x="0px" y="0px"
	 viewBox="0 0 512 512" style="enable-background:new 0 0 512 512;" xml:space="preserve">
<circle style="fill:#4CC6DB;" cx="256" cy="256" r="256"/>
<path style="fill:#5FB795;" d="M245.259,62.472c-10.446-10.446-13.24-31.123-25.725-37.489c-12.94-6.596-31.393,3.427-45.442,1.214
	c-14.189-2.235-28.662-17.408-42.85-15.173c-14.048,2.213-23.134,21.047-36.074,27.644c-12.485,6.364-33.117,2.497-43.563,12.942
	C41.16,62.056,45.028,82.688,38.662,95.173c-6.596,12.94-25.43,22.026-27.644,36.075c-2.235,14.189,12.937,28.662,15.173,42.85
	c2.213,14.048-7.811,32.501-1.213,45.441c6.364,12.485,27.043,15.28,37.488,25.725c10.446,10.446,13.24,31.123,25.725,37.489
	c12.94,6.596,31.393-3.427,45.442-1.214c14.189,2.235,28.662,17.408,42.85,15.173c14.048-2.213,23.134-21.047,36.074-27.644
	c12.485-6.364,33.117-2.497,43.562-12.942c10.446-10.446,6.578-31.077,12.943-43.563c6.596-12.94,25.43-22.026,27.644-36.075
	c2.235-14.189-12.937-28.662-15.173-42.85c-2.213-14.048,7.811-32.501,1.213-45.441C276.383,75.712,255.705,72.917,245.259,62.472z"
	/>
<path style="fill:#3B9B74;" d="M122.87,57.884c-23.388,23.388-30.617,56.81-21.703,86.408c-7.968,4.041-15.451,9.372-22.111,16.032
	c-33.868,33.868-33.869,88.781,0,122.65c33.868,33.869,88.781,33.869,122.65,0c23.388-23.388,30.617-56.81,21.704-86.409
	c7.968-4.041,15.451-9.371,22.111-16.032c33.869-33.869,33.869-88.781,0-122.65C211.65,24.015,156.739,24.015,122.87,57.884z"/>
<circle style="fill:#EF4487;" cx="198.238" cy="131.772" r="86.727"/>
<circle style="fill:#DB1F7E;" cx="154.415" cy="234.214" r="86.727"/>
<path style="fill:#FFC34E;" d="M393.526,301.49c29.783,29.783,52.799,63.763,69.024,100.055c0.561,1.241,1.109,2.483,1.648,3.731
	c-8.002,11.164-17.031,21.833-27.057,31.859c-2.04,2.04-4.107,4.034-6.199,5.992c-12.982,12.154-26.931,22.69-41.597,31.623
	c-15.243,9.287-31.247,16.839-47.745,22.639c-15.405,5.445-31.247,9.361-47.265,11.755L18.092,232.903
	c14.031-6.347,28.423-11.666,43.046-15.974c4.81-1.412,9.627-2.712,14.474-3.909c9.11-2.254,18.323-4.093,27.574-5.586
	c29.717-4.744,59.973-5.475,89.852-2.194c4.692,0.51,9.361,1.116,14.031,1.825C275.317,217.46,340.979,248.943,393.526,301.49z"/>
<path style="fill:#EA9B28;" d="M393.526,301.49c29.783,29.783,52.799,63.763,69.024,100.055
	c-8.926,14.659-19.461,28.608-31.608,41.583c-1.958,2.091-3.96,4.167-6,6.207c-10.034,10.034-20.703,19.062-31.867,27.064
	c-1.249-0.539-2.49-1.086-3.731-1.648c-36.292-16.225-70.265-39.248-100.048-69.031c-52.547-52.547-84.037-118.202-94.425-186.457
	c-0.717-4.662-1.323-9.332-1.833-14.024c4.692,0.51,9.361,1.116,14.031,1.825C275.317,217.46,340.979,248.943,393.526,301.49z"/>
<path style="fill:#FFC34E;" d="M301.483,393.532c30.8,30.8,66.099,54.369,103.788,70.679c11.16-8.01,21.831-17.034,31.86-27.063
	c40.177-40.177,64.181-90.501,72.009-142.806L232.895,18.098c-8.435,18.645-15.042,37.906-19.885,57.519
	c-2.254,9.115-4.1,18.329-5.584,27.578c-5.485,34.376-5.603,69.466-0.371,103.879C217.454,275.326,248.933,340.982,301.483,393.532z
	"/>
<g>
	<path style="fill:#EA9B28;" d="M61.138,216.928L341.6,497.39c-15.405,5.445-31.247,9.361-47.265,11.755L18.092,232.903
		C32.123,226.556,46.516,221.235,61.138,216.928z"/>
	<circle style="fill:#EA9B28;" cx="321.494" cy="261.736" r="11.362"/>
	<circle style="fill:#EA9B28;" cx="423.999" cy="273.92" r="11.362"/>
	<circle style="fill:#EA9B28;" cx="325.089" cy="471.385" r="11.362"/>
	<circle style="fill:#EA9B28;" cx="116.736" cy="261.548" r="11.362"/>
	<circle style="fill:#EA9B28;" cx="404.637" cy="386.894" r="11.362"/>
	<circle style="fill:#EA9B28;" cx="291.015" cy="149.807" r="11.362"/>
	<circle style="fill:#EA9B28;" cx="217.224" cy="313.271" r="11.362"/>
</g>
<g>
</g>
<g>
</g>
<g>
</g>
<g>
</g>
<g>
</g>
<g>
</g>
<g>
</g>
<g>
</g>
<g>
</g>
<g>
</g>
<g>
</g>
<g>
</g>
<g>
</g>
<g>
</g>
<g>
</g>
</svg>
